<svg width="155" height="26" viewBox="0 0 155 26">
  <defs>
    <mask id="perc">
      <rect x="0" y="0" width="100%" height="100%" fill="white" />
      <rect x="22%" y="0" width="100%" height="100%" fill="grey" id='percent' />
    </mask>

    <symbol viewBox="0 0 40 40" id="star">
      <path d="M31.547 12a.848.848 0 00-.677-.577l-9.427-1.376-4.224-8.532a.847.847 0 00-1.516 0l-4.218 8.534-9.427 1.355a.847.847 0 00-.467 1.467l6.823 6.664-1.612 9.375a.847.847 0 001.23.893l8.428-4.434 8.432 4.432a.847.847 0 001.229-.894l-1.615-9.373 6.822-6.665a.845.845 0 00.214-.869z" />
    </symbol>
    <symbol viewBox="0 0 155 32" id="stars">
      <use xlink:href="#star" id=1 x="-74" y="0"></use>
      <use xlink:href="#star" id=2 x="-37" y="0"></use>
      <use xlink:href="#star" id=3 x="0" y="0"></use>
      <use xlink:href="#star" id=4 x="37" y="0"></use>
      <use xlink:href="#star" id=5 x="74" y="0"></use>
    </symbol>
  </defs>

  <use xlink:href="#stars" fill="rgba(249, 173, 61, 1)" stroke="rgba(249, 173, 61, 1)" mask="url(#perc)"></use>
</svg>